<svg xmlns="http://www.w3.org/2000/svg" xmlns:xlink="http://www.w3.org/1999/xlink" viewBox="0 0 500 500"><defs><clipPath id="freepik--clip-path--inject-121"><path d="M317.75,139l-75.54,43.61a.58.58,0,0,1-.77-.16l-8.55-11.92a.59.59,0,0,1,.18-.85l75.55-43.62a.58.58,0,0,1,.77.17l8.55,11.92A.59.59,0,0,1,317.75,139Z" style="fill:none"></path></clipPath></defs><g id="freepik--Floor--inject-121"><ellipse cx="250" cy="344.94" rx="226.35" ry="133.35" style="fill:#f5f5f5"></ellipse></g><g id="freepik--Shadows--inject-121"><polygon points="370.17 274.7 180.59 384.16 95.67 335.08 285.25 225.63 370.17 274.7" style="fill:#e0e0e0"></polygon><path d="M409.16,380.21l-50.55,29.15a10.89,10.89,0,0,1-10.89,0l-71.31-41.17L339,332.08l70.14,40.49A4.41,4.41,0,0,1,409.16,380.21Z" style="fill:#e0e0e0"></path><ellipse cx="291.69" cy="341.92" rx="50.31" ry="29.05" style="fill:#e0e0e0"></ellipse><ellipse cx="189.89" cy="424.2" rx="15.57" ry="9.17" style="fill:#e0e0e0"></ellipse><ellipse cx="111.91" cy="389.95" rx="43.71" ry="25.75" style="fill:#e0e0e0"></ellipse></g><g id="freepik--Table--inject-121"><polygon points="360.01 177.55 180.91 280.95 107.13 238.01 286.23 134.61 360.01 177.55" style="fill:#034BED"></polygon><polygon points="360.01 177.55 180.91 280.95 107.13 238.01 286.23 134.61 360.01 177.55" style="fill:#fff;opacity:0.30000000000000004"></polygon><polygon points="349.6 177.53 180.93 274.92 132.74 246.87 128.19 244.22 117.54 238.02 128.19 231.88 132.74 229.25 286.22 140.64 349.6 177.53" style="fill:#034BED"></polygon><polygon points="129.75 245.13 180.92 274.91 337.39 184.58 286.22 154.79 129.75 245.13" style="opacity:0.2"></polygon><polygon points="360.01 177.55 355.07 180.4 355.07 278.72 360.01 275.87 360.01 177.55" style="fill:#034BED"></polygon><polygon points="360.01 177.55 355.07 180.4 355.07 278.72 360.01 275.87 360.01 177.55" style="fill:#fff;opacity:0.30000000000000004"></polygon><polygon points="350.12 177.55 355.07 180.4 355.07 278.72 350.12 275.87 350.12 177.55" style="fill:#034BED"></polygon><polygon points="186.09 277.96 181.15 280.82 181.15 379.13 186.09 376.28 186.09 277.96" style="fill:#034BED"></polygon><polygon points="186.09 277.96 181.15 280.82 181.15 379.13 186.09 376.28 186.09 277.96" style="fill:#fff;opacity:0.30000000000000004"></polygon><polygon points="176.2 277.96 181.15 280.82 181.15 379.13 176.2 376.28 176.2 277.96" style="fill:#034BED"></polygon><polygon points="117.01 238.01 112.07 240.86 112.07 339.18 117.01 336.32 117.01 238.01" style="fill:#034BED"></polygon><polygon points="117.01 238.01 112.07 240.86 112.07 339.18 117.01 336.32 117.01 238.01" style="fill:#fff;opacity:0.30000000000000004"></polygon><polygon points="107.13 238.01 112.07 240.86 112.07 339.18 107.13 336.32 107.13 238.01" style="fill:#034BED"></polygon><polygon points="355.07 202.17 186.09 299.73 186.09 277.96 355.07 180.4 355.07 202.17" style="fill:#034BED"></polygon><polygon points="355.07 202.17 186.09 299.73 186.09 277.96 355.07 180.4 355.07 202.17" style="fill:#fff;opacity:0.30000000000000004"></polygon><polygon points="107 238.01 107 259.78 181.15 302.59 181.15 280.82 107 238.01" style="fill:#034BED"></polygon><path d="M132.74,187.12v59.75l-4.55-2.65v-57.1a2.28,2.28,0,0,1,4.55,0Z" style="fill:#37474f"></path><polygon points="179.72 118.61 179.72 126.02 188.16 129.44 179.72 118.61" style="fill:#263238"></polygon><polygon points="107.09 165.93 181.15 280.82 360.01 177.55 285.95 62.66 107.09 165.93" style="fill:#034BED"></polygon><polygon points="107.09 165.93 181.15 280.82 360.01 177.55 285.95 62.66 107.09 165.93" style="fill:#fff;opacity:0.7000000000000001"></polygon><polygon points="107.09 169.95 176.93 278.38 181.15 280.82 107.09 165.93 107.09 169.95" style="fill:#034BED"></polygon><polygon points="107.09 169.95 176.93 278.38 181.15 280.82 107.09 165.93 107.09 169.95" style="fill:#fff;opacity:0.5"></polygon><polygon points="134.87 167.02 195.71 261.41 342.65 176.57 281.81 82.18 134.87 167.02" style="fill:#455a64"></polygon><rect x="128.79" y="162.64" width="17.01" height="6.57" transform="translate(-57.5 257.78) rotate(-75.64)" style="fill:#fff"></rect><rect x="273.41" y="80.08" width="17.01" height="6.57" transform="translate(24.12 -57.94) rotate(12.25)" style="fill:#fff"></rect><path d="M200.74,243.46,154,171l122.82-70.91,46.77,72.42Zm-45.36-72.08,45.68,70.73,121.08-69.9-45.68-70.73Z" style="fill:#263238"></path><polygon points="206.57 239.67 160.34 168.1 160.56 167.97 206.78 239.54 206.57 239.67" style="fill:#263238"></polygon><polygon points="213.47 235.67 167.24 164.1 167.45 163.96 213.68 235.53 213.47 235.67" style="fill:#263238"></polygon><polygon points="220.37 231.67 174.14 160.1 174.35 159.96 220.58 231.53 220.37 231.67" style="fill:#263238"></polygon><polygon points="227.27 227.66 181.04 156.09 181.25 155.96 227.48 227.53 227.27 227.66" style="fill:#263238"></polygon><polygon points="234.17 223.66 187.94 152.09 188.15 151.96 234.38 223.53 234.17 223.66" style="fill:#263238"></polygon><polygon points="241.07 219.66 194.84 148.09 195.05 147.95 241.28 219.52 241.07 219.66" style="fill:#263238"></polygon><polygon points="247.97 215.66 201.74 144.08 201.95 143.95 248.18 215.52 247.97 215.66" style="fill:#263238"></polygon><polygon points="254.87 211.65 208.64 140.08 208.85 139.94 255.08 211.52 254.87 211.65" style="fill:#263238"></polygon><polygon points="261.77 207.65 215.54 136.08 215.75 135.94 261.98 207.51 261.77 207.65" style="fill:#263238"></polygon><polygon points="268.67 203.65 222.44 132.07 222.65 131.94 268.88 203.51 268.67 203.65" style="fill:#263238"></polygon><polygon points="275.57 199.64 229.34 128.07 229.55 127.94 275.78 199.51 275.57 199.64" style="fill:#263238"></polygon><polygon points="282.47 195.64 236.24 124.07 236.45 123.93 282.68 195.5 282.47 195.64" style="fill:#263238"></polygon><polygon points="289.37 191.63 243.14 120.06 243.35 119.93 289.58 191.5 289.37 191.63" style="fill:#263238"></polygon><polygon points="296.27 187.63 250.04 116.06 250.25 115.93 296.48 187.5 296.27 187.63" style="fill:#263238"></polygon><polygon points="303.17 183.63 256.94 112.06 257.15 111.92 303.38 183.49 303.17 183.63" style="fill:#263238"></polygon><polygon points="310.06 179.63 263.84 108.06 264.05 107.92 310.27 179.49 310.06 179.63" style="fill:#263238"></polygon><polygon points="316.96 175.62 270.74 104.05 270.95 103.92 317.18 175.49 316.96 175.62" style="fill:#263238"></polygon><rect x="148.74" y="141.23" width="140.82" height="0.25" transform="translate(-41.31 128.36) rotate(-29.97)" style="fill:#263238"></rect><rect x="152.33" y="146.8" width="140.81" height="0.25" transform="translate(-43.61 130.9) rotate(-29.97)" style="fill:#263238"></rect><rect x="155.92" y="152.38" width="140.81" height="0.25" transform="translate(-45.92 133.44) rotate(-29.97)" style="fill:#263238"></rect><rect x="159.52" y="157.96" width="140.81" height="0.25" transform="translate(-48.23 135.98) rotate(-29.97)" style="fill:#263238"></rect><rect x="163.11" y="163.54" width="140.81" height="0.25" transform="translate(-50.53 138.52) rotate(-29.97)" style="fill:#263238"></rect><rect x="166.7" y="169.12" width="140.81" height="0.25" transform="translate(-52.84 141.06) rotate(-29.97)" style="fill:#263238"></rect><rect x="170.29" y="174.7" width="140.81" height="0.25" transform="translate(-55.14 143.6) rotate(-29.97)" style="fill:#263238"></rect><rect x="173.88" y="180.27" width="140.81" height="0.25" transform="translate(-57.45 146.14) rotate(-29.97)" style="fill:#263238"></rect><rect x="177.47" y="185.85" width="140.81" height="0.25" transform="translate(-59.76 148.68) rotate(-29.97)" style="fill:#263238"></rect><rect x="181.07" y="191.43" width="140.81" height="0.25" transform="translate(-62.06 151.22) rotate(-29.97)" style="fill:#263238"></rect><rect x="184.66" y="197.01" width="140.81" height="0.25" transform="translate(-64.37 153.76) rotate(-29.97)" style="fill:#263238"></rect><rect x="188.25" y="202.59" width="140.81" height="0.25" transform="translate(-66.68 156.3) rotate(-29.97)" style="fill:#263238"></rect><path d="M206.68,225.45a.38.38,0,0,1-.32-.18l-21.44-33.12-6.49,3.75a.37.37,0,0,1-.52-.49l16.7-32.8a.39.39,0,0,1,.35-.21l38.35,1a.38.38,0,0,1,.35.29.37.37,0,0,1-.18.42L227,167.64,248.39,201a.37.37,0,0,1,.05.29.38.38,0,0,1-.18.23L206.87,225.4A.45.45,0,0,1,206.68,225.45ZM185,191.27a.36.36,0,0,1,.32.18l21.44,33.12L247.55,201l-21.36-33.33a.37.37,0,0,1-.05-.29.36.36,0,0,1,.19-.24l5.57-3.05-36.73-1-16,31.46,5.71-3.3A.41.41,0,0,1,185,191.27Z" style="fill:#e0e0e0"></path><path d="M248.07,201.54a.37.37,0,0,1-.18-.69l54.86-31.68-6.63-11-49.2-17.1-38.19,22a.37.37,0,0,1-.51-.13.39.39,0,0,1,.14-.52l38.34-22.13a.34.34,0,0,1,.31,0l49.48,17.2a.32.32,0,0,1,.2.16l6.9,11.46a.37.37,0,0,1,0,.29.39.39,0,0,1-.17.23l-55.2,31.86A.32.32,0,0,1,248.07,201.54Z" style="fill:#e0e0e0"></path><path d="M296.37,158.22a.41.41,0,0,1-.32-.18l-21-33.17-13.53,7.82L271.75,149a.37.37,0,0,1-.11.52.38.38,0,0,1-.52-.11l-10.49-16.62a.38.38,0,0,1,0-.29.38.38,0,0,1,.17-.24L275,124a.37.37,0,0,1,.5.13l21.24,33.47a.38.38,0,0,1-.12.52A.36.36,0,0,1,296.37,158.22Z" style="fill:#e0e0e0"></path><path d="M234.28,178.9a.38.38,0,0,1-.33-.18.39.39,0,0,1,.14-.52l45.7-26.38a.37.37,0,0,1,.51.14.38.38,0,0,1-.13.51l-45.71,26.38A.31.31,0,0,1,234.28,178.9Z" style="fill:#e0e0e0"></path><path d="M235.88,182.51a.39.39,0,0,1-.33-.19.37.37,0,0,1,.14-.51l45.16-26.26a.38.38,0,0,1,.31,0l12,4a.37.37,0,0,1,.2.15l7.14,11.26a.36.36,0,0,1-.12.51.37.37,0,0,1-.51-.11l-7.07-11.14-11.75-3.85-45,26.18A.41.41,0,0,1,235.88,182.51Z" style="fill:#e0e0e0"></path><path d="M237.84,184.76a.36.36,0,0,1-.32-.18.38.38,0,0,1,.13-.52l46.86-27.31a.37.37,0,1,1,.38.64L238,184.71A.32.32,0,0,1,237.84,184.76Z" style="fill:#e0e0e0"></path><path d="M240.92,190.37a.38.38,0,0,1-.33-.18.39.39,0,0,1,.14-.52l52.15-30.18a.38.38,0,0,1,.52.13.39.39,0,0,1-.14.52L241.1,190.32A.31.31,0,0,1,240.92,190.37Z" style="fill:#e0e0e0"></path><path d="M239.54,187.59a.37.37,0,0,1-.32-.18.39.39,0,0,1,.13-.52l49-28.9a.38.38,0,1,1,.38.65l-49,28.9A.32.32,0,0,1,239.54,187.59Z" style="fill:#e0e0e0"></path><path d="M202.64,189.63a.37.37,0,0,1-.32-.17l-2.71-4.2a8.34,8.34,0,0,1,14-9l3.09,4.78a.41.41,0,0,1,.05.29.38.38,0,0,1-.18.23l-13.76,8.07A.45.45,0,0,1,202.64,189.63Zm4-16.49a7.61,7.61,0,0,0-3.8,1,7.59,7.59,0,0,0-2.58,10.69l2.52,3.9,13.11-7.68L213,176.61A7.59,7.59,0,0,0,206.62,173.14Z" style="fill:#e0e0e0"></path><path d="M209.52,185.6a.4.4,0,0,1-.32-.17L202,174.25a.38.38,0,1,1,.63-.41L209.83,185a.37.37,0,0,1-.11.52A.36.36,0,0,1,209.52,185.6Z" style="fill:#e0e0e0"></path><path d="M199.15,183.88a.39.39,0,0,1-.33-.19.37.37,0,0,1,.14-.51l13.6-7.86a.37.37,0,0,1,.51.14.36.36,0,0,1-.13.51l-13.61,7.86A.37.37,0,0,1,199.15,183.88Z" style="fill:#e0e0e0"></path><path d="M244.07,165.71a.37.37,0,0,1-.31-.17l-2.71-4.2a8.35,8.35,0,0,1,2.83-11.75,8.34,8.34,0,0,1,11.18,2.7l3.09,4.78a.37.37,0,0,1,.05.29.38.38,0,0,1-.17.24l-13.77,8.06A.41.41,0,0,1,244.07,165.71Zm4-16.49a7.59,7.59,0,0,0-6.37,11.72l2.51,3.89,13.12-7.68-2.88-4.45A7.59,7.59,0,0,0,248.05,149.22Z" style="fill:#e0e0e0"></path><path d="M251,161.68a.37.37,0,0,1-.31-.17l-7.22-11.18a.38.38,0,0,1,.63-.41l7.22,11.18a.38.38,0,0,1-.11.52A.42.42,0,0,1,251,161.68Z" style="fill:#e0e0e0"></path><path d="M240.58,160a.37.37,0,0,1-.32-.19.36.36,0,0,1,.13-.51L254,151.41a.36.36,0,0,1,.51.13.39.39,0,0,1-.14.52l-13.6,7.85A.41.41,0,0,1,240.58,160Z" style="fill:#e0e0e0"></path><path d="M271,142.23a.37.37,0,0,1-.31-.17l-1.53-2.36a4.86,4.86,0,0,1-.64-3.77,4.86,4.86,0,0,1,8.8-1.5l1.74,2.69a.42.42,0,0,1,.05.29.43.43,0,0,1-.18.24l-7.74,4.53A.41.41,0,0,1,271,142.23Zm2.24-9.27a4.11,4.11,0,0,0-4,3.14,4.07,4.07,0,0,0,.55,3.19l1.32,2.06,7.1-4.15-1.53-2.36A4.1,4.1,0,0,0,273.25,133Z" style="fill:#e0e0e0"></path><path d="M274.88,140a.37.37,0,0,1-.31-.17l-4.06-6.28a.38.38,0,1,1,.63-.41l4.06,6.29a.37.37,0,0,1-.11.51A.42.42,0,0,1,274.88,140Z" style="fill:#e0e0e0"></path><path d="M269.05,139a.37.37,0,0,1-.32-.19.36.36,0,0,1,.13-.51l7.65-4.42a.39.39,0,0,1,.52.14.37.37,0,0,1-.14.51L269.24,139A.41.41,0,0,1,269.05,139Z" style="fill:#e0e0e0"></path><path d="M220.48,217.29a.37.37,0,0,1-.32-.17L210.39,202a8.35,8.35,0,0,1,14-9.06l10.18,15.76a.38.38,0,0,1-.11.52.37.37,0,0,1-.52-.11l-10.18-15.76A7.59,7.59,0,1,0,211,201.59l9.76,15.12a.38.38,0,0,1-.11.52A.36.36,0,0,1,220.48,217.29Z" style="fill:#e0e0e0"></path><path d="M211.65,222.57a.37.37,0,0,1-.31-.17L197.66,201a1.47,1.47,0,0,1-.18-1.14,1.42,1.42,0,0,1,.7-.92,1.47,1.47,0,0,1,1.95.48l13.76,21.3a.38.38,0,0,1-.11.52.37.37,0,0,1-.52-.11L199.5,199.81a.72.72,0,0,0-.95-.23.7.7,0,0,0-.34.45.67.67,0,0,0,.09.55L212,222a.37.37,0,0,1-.11.51A.42.42,0,0,1,211.65,222.57Z" style="fill:#e0e0e0"></path><path d="M215.62,220.3a.36.36,0,0,1-.32-.18l-13.67-21.41a1.43,1.43,0,0,1-.19-1.14,1.46,1.46,0,0,1,2.65-.44l13.77,21.31a.38.38,0,0,1-.12.52.37.37,0,0,1-.51-.11l-13.77-21.31a.72.72,0,0,0-1-.24.74.74,0,0,0-.34.45.69.69,0,0,0,.09.56l13.67,21.41a.38.38,0,0,1-.11.52A.36.36,0,0,1,215.62,220.3Z" style="fill:#e0e0e0"></path><path d="M237.36,207.52a.36.36,0,0,1-.32-.18l-13.67-21.41a1.44,1.44,0,0,1-.19-1.14,1.46,1.46,0,0,1,2.65-.44l13.76,21.31a.37.37,0,0,1-.11.52.38.38,0,0,1-.52-.11L225.2,184.76a.72.72,0,0,0-.95-.24.74.74,0,0,0-.34.45.7.7,0,0,0,.09.56l13.67,21.41a.37.37,0,0,1-.31.58Z" style="fill:#e0e0e0"></path><path d="M241.32,205.24a.4.4,0,0,1-.32-.17l-13.67-21.41a1.48,1.48,0,0,1-.19-1.14,1.43,1.43,0,0,1,.7-.92,1.45,1.45,0,0,1,1.95.48l13.77,21.3a.38.38,0,0,1-.11.52.37.37,0,0,1-.52-.11l-13.77-21.31a.71.71,0,0,0-.95-.23.74.74,0,0,0-.34.45.71.71,0,0,0,.09.55l13.68,21.42a.36.36,0,0,1-.12.51A.36.36,0,0,1,241.32,205.24Z" style="fill:#e0e0e0"></path><path d="M224.62,200.71a1.49,1.49,0,1,1,1.49-1.48A1.48,1.48,0,0,1,224.62,200.71Zm0-2.22a.74.74,0,1,0,.74.74A.74.74,0,0,0,224.62,198.49Z" style="fill:#e0e0e0"></path><path d="M258.32,134.41a.38.38,0,0,1-.31-.16l-2.08-3.08a.36.36,0,0,1-.05-.3.36.36,0,0,1,.18-.24l19.43-11a.36.36,0,0,1,.49.12l2,2.88a.39.39,0,0,1,.06.3.39.39,0,0,1-.18.24l-19.32,11.15A.32.32,0,0,1,258.32,134.41Zm-1.54-3.33,1.66,2.46,18.67-10.78-1.55-2.27Z" style="fill:#e0e0e0"></path><path d="M214.71,238c-4.93-10.35-14.3-15.58-21.1-11.68h0c-6.84,3.9-8.69,15.45-4.19,25.94l-7.55,4.2,4.33,9.85,40.45-22.65-4.58-9.87Zm-18.78,10.34c-2.29-5.1-1.42-10.76,1.92-12.66h0c3.34-1.9,7.92.7,10.25,5.79l.1.23L196,248.6Z" style="fill:#034BED"></path><path d="M214.71,238c-4.93-10.35-14.3-15.58-21.1-11.68h0c-6.84,3.9-8.69,15.45-4.19,25.94l-7.55,4.2,4.33,9.85,40.45-22.65-4.58-9.87Zm-18.78,10.34c-2.29-5.1-1.42-10.76,1.92-12.66h0c3.34-1.9,7.92.7,10.25,5.79l.1.23L196,248.6Z" style="opacity:0.30000000000000004"></path><path d="M189.35,264.89a.5.5,0,0,1-.46-.3l-1.07-2.46a.49.49,0,0,1,.25-.65.5.5,0,0,1,.66.25l1.08,2.46a.5.5,0,0,1-.26.65A.46.46,0,0,1,189.35,264.89Z" style="fill:#fafafa"></path><path d="M192.42,263.13a.51.51,0,0,1-.46-.29l-1.07-2.46a.51.51,0,0,1,.25-.66.51.51,0,0,1,.66.26l1.08,2.45a.5.5,0,0,1-.26.66A.45.45,0,0,1,192.42,263.13Z" style="fill:#fafafa"></path><path d="M195.49,261.38a.5.5,0,0,1-.46-.3L194,258.63a.5.5,0,1,1,.92-.4l1.08,2.45a.51.51,0,0,1-.26.66A.48.48,0,0,1,195.49,261.38Z" style="fill:#fafafa"></path><path d="M198.56,259.63a.5.5,0,0,1-.46-.3L197,256.88a.51.51,0,0,1,.26-.66.5.5,0,0,1,.66.26l1.08,2.45a.5.5,0,0,1-.46.7Z" style="fill:#fafafa"></path><path d="M201.63,257.88a.49.49,0,0,1-.46-.3l-1.08-2.45a.51.51,0,0,1,.26-.66.5.5,0,0,1,.66.26l1.07,2.45a.49.49,0,0,1-.25.66A.51.51,0,0,1,201.63,257.88Z" style="fill:#fafafa"></path><path d="M204.7,256.13a.49.49,0,0,1-.46-.3l-1.08-2.45a.5.5,0,0,1,.92-.41l1.07,2.46a.49.49,0,0,1-.25.65A.53.53,0,0,1,204.7,256.13Z" style="fill:#fafafa"></path><path d="M207.77,254.38a.51.51,0,0,1-.46-.3l-1.08-2.46a.51.51,0,0,1,.26-.66.52.52,0,0,1,.66.26l1.07,2.45a.5.5,0,0,1-.25.66A.53.53,0,0,1,207.77,254.38Z" style="fill:#fafafa"></path><path d="M210.83,252.62a.49.49,0,0,1-.45-.3l-1.08-2.45a.5.5,0,0,1,.26-.66.52.52,0,0,1,.66.26l1.07,2.45a.5.5,0,0,1-.25.66A.52.52,0,0,1,210.83,252.62Z" style="fill:#fafafa"></path><path d="M213.9,250.87a.49.49,0,0,1-.45-.3l-1.08-2.45a.5.5,0,0,1,.26-.66.51.51,0,0,1,.66.26l1.07,2.45a.5.5,0,0,1-.25.66A.52.52,0,0,1,213.9,250.87Z" style="fill:#fafafa"></path><path d="M217,249.12a.49.49,0,0,1-.45-.3l-1.08-2.45a.5.5,0,1,1,.92-.4l1.07,2.45a.5.5,0,0,1-.26.66A.45.45,0,0,1,217,249.12Z" style="fill:#fafafa"></path><path d="M220,247.37a.51.51,0,0,1-.46-.3l-1.07-2.45a.5.5,0,0,1,.91-.41l1.08,2.46a.5.5,0,0,1-.26.66A.65.65,0,0,1,220,247.37Z" style="fill:#fafafa"></path><path d="M223.11,245.62a.53.53,0,0,1-.46-.3l-1.07-2.46a.49.49,0,0,1,.25-.65.5.5,0,0,1,.66.25l1.08,2.45a.49.49,0,0,1-.26.66A.46.46,0,0,1,223.11,245.62Z" style="fill:#fafafa"></path><path d="M193.07,126a2.61,2.61,0,0,1-2.61-2.62V67.85A18.33,18.33,0,0,1,199.58,52L222,39.09a15.78,15.78,0,0,1,16.09.17l12.1,7.19a2.61,2.61,0,0,1-2.67,4.49l-12.12-7.2a10.55,10.55,0,0,0-10.78-.13l-22.39,13a13.09,13.09,0,0,0-6.51,11.29v55.5A2.61,2.61,0,0,1,193.07,126Z" style="fill:#263238"></path><path d="M226.52,61.58h0a3.2,3.2,0,0,1,0-5.54L261.6,35.65a9.14,9.14,0,0,1,9.5.18h0Z" style="fill:#263238"></path><polygon points="226.51 74.45 215.31 86.75 281.66 47.02 293.4 35.82 226.51 74.45" style="fill:#ebebeb"></polygon><path d="M212.66,88.92,226.26,74l70.5-40.72L281.92,47.45Zm14.17-14.07L218,84.58l63.39-38L290,38.34Z" style="fill:#fafafa"></path><path d="M289.88,38.45l-8.54,8.15L218.08,84.48l8.76-9.62,63-36.41m3.52-2.63L226.51,74.45l-11.2,12.3L281.66,47l11.74-11.2Z" style="fill:#37474f"></path><polygon points="226.51 74.45 215.36 68.01 282.25 29.39 293.4 35.82 226.51 74.45" style="fill:#455a64"></polygon><polygon points="215.36 68.01 215.36 68.01 215.31 86.75 226.51 74.45 215.36 68.01" style="fill:#263238"></polygon><polygon points="211.43 116 188.16 129.44 179.72 118.61 202.99 105.17 211.43 116" style="fill:#37474f"></polygon><path d="M199,119a1.71,1.71,0,1,1-1.71-1.72A1.7,1.7,0,0,1,199,119Z" style="fill:#263238"></path><path d="M184.36,270.75a1.57,1.57,0,0,1-.78-2.93L349,172.3a1.56,1.56,0,1,1,1.56,2.71L185.15,270.54A1.61,1.61,0,0,1,184.36,270.75Z" style="fill:#034BED"></path></g><g id="freepik--Plant--inject-121"><path d="M191,389.29S178,376.55,185.38,355.2c4.16-12,18-20.75,25.81-21.58A36.8,36.8,0,0,0,205.05,344l-9.89,6.58,9.09-2.85-1.94,7.79s-8.46,5.11-9.71,6.23l9.12-2.39S201,381.37,191,389.29Z" style="fill:#034BED"></path><path d="M191,389.29S178,376.55,185.38,355.2c4.16-12,18-20.75,25.81-21.58A36.8,36.8,0,0,0,205.05,344l-9.89,6.58,9.09-2.85-1.94,7.79s-8.46,5.11-9.71,6.23l9.12-2.39S201,381.37,191,389.29Z" style="opacity:0.4"></path><path d="M191,389.29s-6.76-26.67,3.24-42.22C194.24,347.07,182.52,360.8,191,389.29Z" style="fill:#fff"></path><path d="M205.94,392.9l-16-.2h-.17l-16,.2s-.18,19.68,5.88,27.68h0c1.67,2.13,5.59,3.62,10.17,3.62s8.5-1.5,10.17-3.63C206.11,412.56,205.94,392.9,205.94,392.9Z" style="fill:#37474f"></path><ellipse cx="189.89" cy="392.9" rx="16.05" ry="8.62" style="fill:#455a64"></ellipse><path d="M189.89,390.62c5.52,0,10.19,1.77,11.84,4.22a3.46,3.46,0,0,0,.64-1.94c0-3.4-5.59-6.16-12.48-6.16s-12.49,2.76-12.49,6.16a3.46,3.46,0,0,0,.64,1.94C179.69,392.39,184.36,390.62,189.89,390.62Z" style="fill:#263238"></path><path d="M189.89,390.62c-5.53,0-10.2,1.77-11.85,4.22,1.65,2.46,6.32,4.23,11.85,4.23s10.19-1.77,11.84-4.23C200.08,392.39,195.41,390.62,189.89,390.62Z" style="fill:#e0e0e0"></path><path d="M190.08,395.91s-6.18-.24-11.49-8.46c-2.19-3.39-3.24-5.17-3.24-5.17l8.62-.64-9.66-2.41-4.56-7,8-.6s-6-2.09-10.24-2.11c0,0-7.39-13.07-9.56-14.93a41.91,41.91,0,0,1,29.21,14.51C199.34,383.5,191.89,396.28,190.08,395.91Z" style="fill:#034BED"></path><path d="M190.08,395.91s3.87-23.3-20.82-37.32C169.26,358.59,194.89,370.9,190.08,395.91Z" style="fill:#fff"></path><path d="M190.08,395.91s5.61.36,11.17-6.55c2.29-2.85,3.41-4.36,3.41-4.36l-7.72-1.39,8.94-1.27,4.78-5.86-7.18-1.29s5.58-1.33,9.43-.95c0,0,7.9-11.09,10-12.57A38,38,0,0,0,195.22,372C182.9,383.84,188.42,396.07,190.08,395.91Z" style="fill:#034BED"></path><path d="M190.08,395.91s5.61.36,11.17-6.55c2.29-2.85,3.41-4.36,3.41-4.36l-7.72-1.39,8.94-1.27,4.78-5.86-7.18-1.29s5.58-1.33,9.43-.95c0,0,7.9-11.09,10-12.57A38,38,0,0,0,195.22,372C182.9,383.84,188.42,396.07,190.08,395.91Z" style="opacity:0.2"></path><path d="M190.08,395.91s-1.29-21.39,22.3-31.71C212.38,364.2,188.1,372.89,190.08,395.91Z" style="fill:#fff"></path></g><g id="freepik--Papers--inject-121"><path d="M80.06,327.57v61h0c0,4.59,3,9.18,9.1,12.68,12.13,7,31.8,7,43.93,0,6.06-3.5,9.09-8.09,9.09-12.68h0v-61Z" style="fill:#37474f"></path><ellipse cx="111.12" cy="327.31" rx="31.06" ry="17.93" style="fill:#455a64"></ellipse><path d="M132.41,335.75a21.66,21.66,0,0,1-3,2.1c-.21.13-.42.24-.64.36a29.4,29.4,0,0,1-4.38,1.91c-.6.21-1.23.41-1.86.57a38.54,38.54,0,0,1-4.37,1c-1.27.2-2.56.36-3.86.44-.52.05-1,.08-1.57.09-1,0-2,0-2.95,0-1.24,0-2.46-.12-3.67-.25a38.09,38.09,0,0,1-4.58-.8c-.6-.13-1.2-.28-1.78-.46a30.22,30.22,0,0,1-6.88-2.84A21.43,21.43,0,0,1,90.18,336c-5.88-4.68-6.46-10.89-1.74-15.88a19.36,19.36,0,0,1,4.41-3.4,28.66,28.66,0,0,1,5.72-2.49c.37-.12.77-.25,1.16-.35a30.21,30.21,0,0,1,3.22-.76c1.17-.23,2.36-.4,3.57-.53a44.42,44.42,0,0,1,11.62.32l.35.06a35,35,0,0,1,4,.91,30.8,30.8,0,0,1,5.36,2c.53.25,1,.53,1.52.81a24.53,24.53,0,0,1,2.26,1.48,16,16,0,0,1,2.89,2.76C138.36,325.73,137.65,331.38,132.41,335.75Z" style="fill:#263238"></path><path d="M112.08,248.38v19h9.71V254.43S118.17,249.16,112.08,248.38Z" style="fill:#034BED"></path><path d="M112.08,248.38v19h9.71V254.43S118.17,249.16,112.08,248.38Z" style="fill:#fff;opacity:0.30000000000000004"></path><path d="M118.14,253.11v88.56c-1.27.2-2.56.36-3.86.44-.52.05-1,.08-1.57.09-1,0-2,0-2.95,0-1.24,0-2.46-.12-3.67-.25a38.09,38.09,0,0,1-4.58-.8c-.6-.13-1.2-.28-1.78-.46V253.11Z" style="fill:#034BED"></path><path d="M118.14,253.11v88.56c-1.27.2-2.56.36-3.86.44-.52.05-1,.08-1.57.09-1,0-2,0-2.95,0-1.24,0-2.46-.12-3.67-.25a38.09,38.09,0,0,1-4.58-.8c-.6-.13-1.2-.28-1.78-.46V253.11Z" style="fill:#fff;opacity:0.7000000000000001"></path><path d="M122.51,256.09v84.6a38.54,38.54,0,0,1-4.37,1c-1.27.2-2.56.36-3.86.44-.52.05-1,.08-1.57.09V263.35a16,16,0,0,0,5.43-1.86,9.63,9.63,0,0,0,3.65-3.59A5.93,5.93,0,0,0,122.51,256.09Z" style="fill:#034BED"></path><path d="M122.51,256.09v84.6a38.54,38.54,0,0,1-4.37,1c-1.27.2-2.56.36-3.86.44-.52.05-1,.08-1.57.09V263.35a16,16,0,0,0,5.43-1.86,9.63,9.63,0,0,0,3.65-3.59A5.93,5.93,0,0,0,122.51,256.09Z" style="fill:#fff;opacity:0.5"></path><path d="M113.17,263.72a.46.46,0,0,1-.45-.37.45.45,0,0,1,.36-.54,16.11,16.11,0,0,0,4.9-1.76c2.32-1.35,3.61-3.11,3.61-5s-1.29-3.61-3.61-4.95a18.41,18.41,0,0,0-9-2.16.46.46,0,0,1-.46-.46.47.47,0,0,1,.46-.46,19.33,19.33,0,0,1,9.51,2.28c2.63,1.51,4.07,3.56,4.07,5.75s-1.44,4.24-4.07,5.76a16.79,16.79,0,0,1-5.18,1.86Z" style="fill:#034BED"></path><path d="M113.17,263.72a.46.46,0,0,1-.45-.37.45.45,0,0,1,.36-.54,16.11,16.11,0,0,0,4.9-1.76c2.32-1.35,3.61-3.11,3.61-5s-1.29-3.61-3.61-4.95a18.41,18.41,0,0,0-9-2.16.46.46,0,0,1-.46-.46.47.47,0,0,1,.46-.46,19.33,19.33,0,0,1,9.51,2.28c2.63,1.51,4.07,3.56,4.07,5.75s-1.44,4.24-4.07,5.76a16.79,16.79,0,0,1-5.18,1.86Z" style="fill:#fff;opacity:0.5"></path><ellipse cx="108.93" cy="253.37" rx="9.2" ry="5.31" style="fill:#034BED"></ellipse><ellipse cx="108.93" cy="253.37" rx="9.2" ry="5.31" style="fill:#fff;opacity:0.5"></ellipse><path d="M132.46,280.93l-2,14.05,7.19,1,1.39-9.57A11.53,11.53,0,0,0,132.46,280.93Z" style="fill:#034BED"></path><path d="M132.46,280.93l-2,14.05,7.19,1,1.39-9.57A11.53,11.53,0,0,0,132.46,280.93Z" style="fill:#fff;opacity:0.30000000000000004"></path><path d="M136.44,285.08l-.83,5.79-.07.42,0,.37-.57,4-3.27,22.62-2.9,20a29.4,29.4,0,0,1-4.38,1.91c-.6.21-1.23.41-1.86.57a38.54,38.54,0,0,1-4.37,1c-1.27.2-2.56.36-3.86.44l3.86-26.67.35-2.43,4-27.81.31-2.09h0l9.11,1.32,4.47.65Z" style="fill:#034BED"></path><path d="M136.44,285.08l-.83,5.79-.07.42,0,.37-.57,4-3.27,22.62-2.9,20a29.4,29.4,0,0,1-4.38,1.91c-.6.21-1.23.41-1.86.57a38.54,38.54,0,0,1-4.37,1c-1.27.2-2.56.36-3.86.44l3.86-26.67.35-2.43,4-27.81.31-2.09h0l9.11,1.32,4.47.65Z" style="fill:#fff;opacity:0.7000000000000001"></path><path d="M139.36,287.76,134.54,321l-2.13,14.75a21.66,21.66,0,0,1-3,2.1c-.21.13-.42.24-.64.36a29.4,29.4,0,0,1-4.38,1.91l3.5-24.17,3-20.9.43-3a11.81,11.81,0,0,0,4.21-.79,7.16,7.16,0,0,0,3.07-2.25A4.56,4.56,0,0,0,139.36,287.76Z" style="fill:#034BED"></path><path d="M139.36,287.76,134.54,321l-2.13,14.75a21.66,21.66,0,0,1-3,2.1c-.21.13-.42.24-.64.36a29.4,29.4,0,0,1-4.38,1.91l3.5-24.17,3-20.9.43-3a11.81,11.81,0,0,0,4.21-.79,7.16,7.16,0,0,0,3.07-2.25A4.56,4.56,0,0,0,139.36,287.76Z" style="fill:#fff;opacity:0.5"></path><path d="M131.63,292.4a.34.34,0,0,1-.3-.32.35.35,0,0,1,.33-.37,12,12,0,0,0,3.81-.77c1.86-.75,3-1.91,3.2-3.28s-.56-2.81-2.14-4.05a13.8,13.8,0,0,0-6.46-2.57.34.34,0,1,1,.1-.68,14.43,14.43,0,0,1,6.79,2.7c1.78,1.41,2.63,3.07,2.39,4.7s-1.52,3-3.63,3.82a12.76,12.76,0,0,1-4,.83Z" style="fill:#034BED"></path><path d="M131.63,292.4a.34.34,0,0,1-.3-.32.35.35,0,0,1,.33-.37,12,12,0,0,0,3.81-.77c1.86-.75,3-1.91,3.2-3.28s-.56-2.81-2.14-4.05a13.8,13.8,0,0,0-6.46-2.57.34.34,0,1,1,.1-.68,14.43,14.43,0,0,1,6.79,2.7c1.78,1.41,2.63,3.07,2.39,4.7s-1.52,3-3.63,3.82a12.76,12.76,0,0,1-4,.83Z" style="fill:#fff;opacity:0.5"></path><path d="M134.82,282.21c2.43,1.92,2.07,4.41-.81,5.56a10.76,10.76,0,0,1-9.63-1.4c-2.44-1.92-2.08-4.41.81-5.56A10.76,10.76,0,0,1,134.82,282.21Z" style="fill:#034BED"></path><path d="M134.82,282.21c2.43,1.92,2.07,4.41-.81,5.56a10.76,10.76,0,0,1-9.63-1.4c-2.44-1.92-2.08-4.41.81-5.56A10.76,10.76,0,0,1,134.82,282.21Z" style="fill:#fff;opacity:0.5"></path><path d="M93.26,270.68,95,286.23l8-.87-1.16-10.59S98.33,270.77,93.26,270.68Z" style="fill:#034BED"></path><path d="M93.26,270.68,95,286.23l8-.87-1.16-10.59S98.33,270.77,93.26,270.68Z" style="fill:#fff;opacity:0.30000000000000004"></path><path d="M106.09,342a38.09,38.09,0,0,1-4.58-.8c-.6-.13-1.2-.28-1.78-.46a30.22,30.22,0,0,1-6.88-2.84A21.43,21.43,0,0,1,90.18,336l-1.74-15.88-4.86-44.5h0l10.09-1.11,5-.54h0l.7,6.42,0,.44,0,.43.27,2.44.21,1.95,3,27.47Z" style="fill:#034BED"></path><path d="M106.09,342a38.09,38.09,0,0,1-4.58-.8c-.6-.13-1.2-.28-1.78-.46a30.22,30.22,0,0,1-6.88-2.84A21.43,21.43,0,0,1,90.18,336l-1.74-15.88-4.86-44.5h0l10.09-1.11,5-.54h0l.7,6.42,0,.44,0,.43.27,2.44.21,1.95,3,27.47Z" style="fill:#fff;opacity:0.7000000000000001"></path><path d="M106.09,342a38.09,38.09,0,0,1-4.58-.8l-1.78-16.28-1.16-10.6-3.08-28.09-.36-3.29a13,13,0,0,0,4.28-2c.12-.08.22-.16.32-.24a7.83,7.83,0,0,0,2.35-3,4.91,4.91,0,0,0,.43-1.56l4,36.57,3.24,29.57C108.52,342.17,107.3,342.08,106.09,342Z" style="fill:#034BED"></path><path d="M106.09,342a38.09,38.09,0,0,1-4.58-.8l-1.78-16.28-1.16-10.6-3.08-28.09-.36-3.29a13,13,0,0,0,4.28-2c.12-.08.22-.16.32-.24a7.83,7.83,0,0,0,2.35-3,4.91,4.91,0,0,0,.43-1.56l4,36.57,3.24,29.57C108.52,342.17,107.3,342.08,106.09,342Z" style="fill:#fff;opacity:0.5"></path><path d="M95.54,283.15a.39.39,0,0,1-.41-.26.38.38,0,0,1,.26-.48,13.41,13.41,0,0,0,3.85-1.88c1.78-1.31,2.68-2.87,2.51-4.39s-1.37-2.84-3.4-3.73a15.3,15.3,0,0,0-7.61-1,.37.37,0,0,1-.42-.33.38.38,0,0,1,.34-.42,15.81,15.81,0,0,1,8,1c2.28,1,3.65,2.55,3.85,4.35s-.8,3.61-2.82,5.08a13.74,13.74,0,0,1-4.08,2Z" style="fill:#034BED"></path><path d="M95.54,283.15a.39.39,0,0,1-.41-.26.38.38,0,0,1,.26-.48,13.41,13.41,0,0,0,3.85-1.88c1.78-1.31,2.68-2.87,2.51-4.39s-1.37-2.84-3.4-3.73a15.3,15.3,0,0,0-7.61-1,.37.37,0,0,1-.42-.33.38.38,0,0,1,.34-.42,15.81,15.81,0,0,1,8,1c2.28,1,3.65,2.55,3.85,4.35s-.8,3.61-2.82,5.08a13.74,13.74,0,0,1-4.08,2Z" style="fill:#fff;opacity:0.5"></path><path d="M96.13,271.39c3.14,1.37,3.44,4.13.68,6.16a11.87,11.87,0,0,1-10.67,1.16c-3.13-1.37-3.43-4.13-.67-6.16A11.85,11.85,0,0,1,96.13,271.39Z" style="fill:#034BED"></path><path d="M96.13,271.39c3.14,1.37,3.44,4.13.68,6.16a11.87,11.87,0,0,1-10.67,1.16c-3.13-1.37-3.43-4.13-.67-6.16A11.85,11.85,0,0,1,96.13,271.39Z" style="fill:#fff;opacity:0.5"></path></g><g id="freepik--Character--inject-121"><path d="M317.75,139l-75.54,43.61a.58.58,0,0,1-.77-.16l-8.55-11.92a.59.59,0,0,1,.18-.85l75.55-43.62a.58.58,0,0,1,.77.17l8.55,11.92A.59.59,0,0,1,317.75,139Z" style="fill:#034BED"></path><g style="clip-path:url(#freepik--clip-path--inject-121)"><path d="M236.59,172a.12.12,0,0,1-.1,0l-2.11-2.94a.12.12,0,0,1,0-.17.14.14,0,0,1,.18,0l2.11,2.95a.12.12,0,0,1,0,.17A.12.12,0,0,1,236.59,172Z" style="fill:#263238"></path><path d="M236.59,170a.12.12,0,0,1-.1,0l-1.08-1.49a.14.14,0,0,1,0-.18.13.13,0,0,1,.18,0l1.07,1.49a.13.13,0,0,1,0,.18Z" style="fill:#263238"></path><path d="M237.66,169.35a.1.1,0,0,1-.1,0l-1.08-1.49a.13.13,0,1,1,.21-.15l1.07,1.5a.12.12,0,0,1,0,.17A.08.08,0,0,1,237.66,169.35Z" style="fill:#263238"></path><path d="M238.73,168.73a.11.11,0,0,1-.1-.06l-1.07-1.49a.12.12,0,0,1,0-.17.13.13,0,0,1,.18,0l1.07,1.49a.12.12,0,0,1,0,.17A.09.09,0,0,1,238.73,168.73Z" style="fill:#263238"></path><path d="M239.8,168.1a.12.12,0,0,1-.1,0l-1.07-1.49a.14.14,0,0,1,0-.18.13.13,0,0,1,.18,0l1.07,1.49a.14.14,0,0,1,0,.18Z" style="fill:#263238"></path><path d="M241.91,169a.14.14,0,0,1-.1-.06L239.7,166a.12.12,0,0,1,.2-.14l2.12,2.94a.13.13,0,0,1,0,.17A.13.13,0,0,1,241.91,169Z" style="fill:#263238"></path><path d="M241.91,166.88a.1.1,0,0,1-.1,0l-1.07-1.49a.14.14,0,0,1,0-.18.14.14,0,0,1,.18,0l1.07,1.5a.12.12,0,0,1,0,.17A.08.08,0,0,1,241.91,166.88Z" style="fill:#263238"></path><path d="M243,166.26a.12.12,0,0,1-.1-.06l-1.07-1.49a.12.12,0,0,1,0-.17.13.13,0,0,1,.18,0l1.07,1.49a.12.12,0,0,1,0,.17A.13.13,0,0,1,243,166.26Z" style="fill:#263238"></path><path d="M244.05,165.63a.14.14,0,0,1-.1,0l-1.07-1.5a.12.12,0,0,1,.2-.14l1.07,1.49a.14.14,0,0,1,0,.18Z" style="fill:#263238"></path><path d="M245.12,165a.11.11,0,0,1-.1-.05L244,163.46a.13.13,0,1,1,.2-.15l1.08,1.5a.13.13,0,0,1,0,.17A.12.12,0,0,1,245.12,165Z" style="fill:#263238"></path><path d="M247.24,165.85a.16.16,0,0,1-.11,0L245,162.86a.13.13,0,0,1,0-.18.12.12,0,0,1,.17,0l2.12,2.94a.12.12,0,0,1,0,.17A.11.11,0,0,1,247.24,165.85Z" style="fill:#263238"></path><path d="M247.23,163.79a.12.12,0,0,1-.1-.06l-1.07-1.49a.12.12,0,0,1,0-.17.12.12,0,0,1,.17,0l1.07,1.5a.12.12,0,0,1,0,.17A.13.13,0,0,1,247.23,163.79Z" style="fill:#263238"></path><path d="M248.3,163.16a.14.14,0,0,1-.1,0l-1.07-1.5a.12.12,0,0,1,.2-.14l1.08,1.49a.14.14,0,0,1,0,.18Z" style="fill:#263238"></path><path d="M249.38,162.53a.16.16,0,0,1-.11-.05L248.2,161a.13.13,0,1,1,.2-.15l1.08,1.49a.14.14,0,0,1,0,.18Z" style="fill:#263238"></path><path d="M250.45,161.91a.14.14,0,0,1-.11-.06l-1.07-1.49a.12.12,0,0,1,0-.17.12.12,0,0,1,.17,0l1.08,1.5a.12.12,0,0,1,0,.17A.11.11,0,0,1,250.45,161.91Z" style="fill:#263238"></path><path d="M252.56,162.75a.12.12,0,0,1-.1-.05l-2.12-2.94a.13.13,0,0,1,0-.18.13.13,0,0,1,.17,0l2.12,2.94a.13.13,0,0,1,0,.18Z" style="fill:#263238"></path><path d="M252.55,160.69a.16.16,0,0,1-.1-.05l-1.07-1.5a.12.12,0,0,1,.2-.14l1.08,1.49a.14.14,0,0,1,0,.18Z" style="fill:#263238"></path><path d="M253.63,160.06a.16.16,0,0,1-.11-.05l-1.07-1.49a.13.13,0,0,1,0-.18.12.12,0,0,1,.17,0l1.08,1.49a.14.14,0,0,1,0,.18Z" style="fill:#263238"></path><path d="M254.7,159.44a.11.11,0,0,1-.1-.06l-1.08-1.49a.12.12,0,0,1,0-.17.12.12,0,0,1,.17,0l1.08,1.5a.12.12,0,0,1,0,.17A.11.11,0,0,1,254.7,159.44Z" style="fill:#263238"></path><path d="M255.77,158.81a.12.12,0,0,1-.1-.05l-1.08-1.5a.13.13,0,0,1,0-.17.13.13,0,0,1,.18,0l1.07,1.49a.13.13,0,0,1,0,.18Z" style="fill:#263238"></path><path d="M257.88,159.65a.1.1,0,0,1-.1-.05l-2.12-2.94a.13.13,0,0,1,0-.17.13.13,0,0,1,.18,0l2.11,2.94a.12.12,0,0,1,0,.17A.08.08,0,0,1,257.88,159.65Z" style="fill:#263238"></path><path d="M257.88,157.59a.12.12,0,0,1-.1-.05l-1.08-1.49a.13.13,0,0,1,0-.18.12.12,0,0,1,.17,0l1.08,1.49a.13.13,0,0,1,0,.18Z" style="fill:#263238"></path><path d="M259,157a.1.1,0,0,1-.1-.05l-1.08-1.49a.13.13,0,0,1,.21-.15l1.07,1.5a.12.12,0,0,1,0,.17A.1.1,0,0,1,259,157Z" style="fill:#263238"></path><path d="M260,156.34a.12.12,0,0,1-.1-.05l-1.08-1.5a.13.13,0,0,1,0-.17.13.13,0,0,1,.18,0l1.07,1.49a.12.12,0,0,1,0,.17A.11.11,0,0,1,260,156.34Z" style="fill:#263238"></path><path d="M261.09,155.71a.12.12,0,0,1-.1-.05l-1.08-1.49a.14.14,0,0,1,0-.18.13.13,0,0,1,.18,0l1.07,1.49a.13.13,0,0,1,0,.18Z" style="fill:#263238"></path><path d="M263.2,156.56a.11.11,0,0,1-.1-.06L261,153.56a.12.12,0,0,1,0-.17.13.13,0,0,1,.18,0l2.11,2.94a.12.12,0,0,1,0,.17A.13.13,0,0,1,263.2,156.56Z" style="fill:#263238"></path><path d="M263.2,154.49a.1.1,0,0,1-.1-.05L262,153a.13.13,0,0,1,.21-.15l1.07,1.5a.12.12,0,0,1,0,.17A.1.1,0,0,1,263.2,154.49Z" style="fill:#263238"></path><path d="M264.27,153.87a.11.11,0,0,1-.1-.06l-1.08-1.49a.13.13,0,0,1,.21-.14l1.07,1.49a.12.12,0,0,1,0,.17A.11.11,0,0,1,264.27,153.87Z" style="fill:#263238"></path><path d="M265.34,153.24a.12.12,0,0,1-.1-.05l-1.07-1.5a.12.12,0,0,1,0-.17.13.13,0,0,1,.18,0l1.07,1.49a.13.13,0,0,1,0,.18Z" style="fill:#263238"></path><path d="M266.41,152.61a.1.1,0,0,1-.1-.05l-1.07-1.49a.14.14,0,0,1,0-.18.14.14,0,0,1,.18,0l1.07,1.5a.12.12,0,0,1,0,.17A.12.12,0,0,1,266.41,152.61Z" style="fill:#263238"></path><path d="M268.52,153.46a.14.14,0,0,1-.1-.05l-2.11-2.94a.13.13,0,0,1,0-.18.12.12,0,0,1,.17,0l2.11,2.94a.13.13,0,0,1,0,.18Z" style="fill:#263238"></path><path d="M268.52,151.4a.11.11,0,0,1-.1-.06l-1.08-1.49a.13.13,0,0,1,.21-.14l1.07,1.49a.12.12,0,0,1,0,.17A.09.09,0,0,1,268.52,151.4Z" style="fill:#263238"></path><path d="M269.59,150.77a.12.12,0,0,1-.1-.05l-1.07-1.5a.12.12,0,0,1,0-.17.13.13,0,0,1,.18,0l1.07,1.49a.14.14,0,0,1,0,.18Z" style="fill:#263238"></path><path d="M270.66,150.14a.11.11,0,0,1-.1,0l-1.07-1.49a.13.13,0,1,1,.2-.15l1.07,1.5a.12.12,0,0,1,0,.17A.12.12,0,0,1,270.66,150.14Z" style="fill:#263238"></path><path d="M271.73,149.52a.14.14,0,0,1-.1-.06L270.56,148a.12.12,0,0,1,.2-.14l1.08,1.49a.13.13,0,0,1,0,.17A.11.11,0,0,1,271.73,149.52Z" style="fill:#263238"></path><path d="M273.85,150.36a.16.16,0,0,1-.11-.05l-2.11-2.94a.13.13,0,1,1,.2-.15l2.12,2.94a.14.14,0,0,1,0,.18Z" style="fill:#263238"></path><path d="M273.84,148.3a.14.14,0,0,1-.1-.05l-1.07-1.5a.12.12,0,0,1,.2-.14l1.07,1.49a.14.14,0,0,1,0,.18Z" style="fill:#263238"></path><path d="M274.91,147.67a.16.16,0,0,1-.1,0l-1.07-1.49a.13.13,0,0,1,0-.18.12.12,0,0,1,.17,0l1.08,1.5a.13.13,0,0,1,0,.17A.12.12,0,0,1,274.91,147.67Z" style="fill:#263238"></path><path d="M276,147.05a.14.14,0,0,1-.11-.06l-1.07-1.49a.12.12,0,0,1,0-.17.12.12,0,0,1,.17,0l1.08,1.5a.13.13,0,0,1,0,.17A.11.11,0,0,1,276,147.05Z" style="fill:#263238"></path><path d="M277.06,146.42a.16.16,0,0,1-.11,0l-1.07-1.5a.12.12,0,1,1,.2-.14l1.08,1.49a.14.14,0,0,1,0,.18Z" style="fill:#263238"></path><path d="M279.17,147.26a.1.1,0,0,1-.1,0L277,144.27a.12.12,0,0,1,0-.17.12.12,0,0,1,.17,0l2.12,2.94a.12.12,0,0,1,0,.17A.1.1,0,0,1,279.17,147.26Z" style="fill:#263238"></path><path d="M279.17,145.2a.16.16,0,0,1-.11,0L278,143.66a.13.13,0,0,1,0-.18.12.12,0,0,1,.17,0l1.08,1.49a.14.14,0,0,1,0,.18Z" style="fill:#263238"></path><path d="M280.24,144.58a.14.14,0,0,1-.11-.06L279.06,143a.12.12,0,0,1,0-.17.12.12,0,0,1,.17,0l1.08,1.5a.13.13,0,0,1,0,.17A.11.11,0,0,1,280.24,144.58Z" style="fill:#263238"></path><path d="M281.31,144a.12.12,0,0,1-.1,0l-1.08-1.5a.12.12,0,1,1,.2-.14l1.08,1.49a.13.13,0,0,1,0,.18Z" style="fill:#263238"></path><path d="M282.38,143.32a.12.12,0,0,1-.1,0l-1.08-1.49a.13.13,0,0,1,.21-.15l1.07,1.49a.13.13,0,0,1,0,.18Z" style="fill:#263238"></path><path d="M284.49,144.17a.11.11,0,0,1-.1-.06l-2.12-2.94a.13.13,0,0,1,.21-.14l2.11,2.94a.12.12,0,0,1,0,.17A.11.11,0,0,1,284.49,144.17Z" style="fill:#263238"></path><path d="M284.49,142.1a.13.13,0,0,1-.11,0l-1.07-1.49a.13.13,0,0,1,0-.18.13.13,0,0,1,.17,0l1.08,1.5a.12.12,0,0,1,0,.17A.1.1,0,0,1,284.49,142.1Z" style="fill:#263238"></path><path d="M285.56,141.48a.12.12,0,0,1-.1,0l-1.08-1.5a.12.12,0,0,1,0-.17.12.12,0,0,1,.17,0l1.08,1.49a.12.12,0,0,1,0,.17A.11.11,0,0,1,285.56,141.48Z" style="fill:#263238"></path><path d="M286.63,140.85a.12.12,0,0,1-.1,0l-1.08-1.49a.14.14,0,0,1,0-.18.13.13,0,0,1,.18,0l1.07,1.49a.13.13,0,0,1,0,.18Z" style="fill:#263238"></path><path d="M287.7,140.22a.1.1,0,0,1-.1-.05l-1.08-1.49a.14.14,0,0,1,0-.18.14.14,0,0,1,.18,0l1.07,1.5a.12.12,0,0,1,0,.17A.08.08,0,0,1,287.7,140.22Z" style="fill:#263238"></path><path d="M289.81,141.07a.12.12,0,0,1-.1,0l-2.12-2.94a.14.14,0,0,1,0-.18.13.13,0,0,1,.18,0l2.11,2.94a.13.13,0,0,1,0,.18Z" style="fill:#263238"></path><path d="M289.81,139a.12.12,0,0,1-.1,0l-1.08-1.5a.13.13,0,0,1,.21-.14l1.07,1.49a.12.12,0,0,1,0,.17A.11.11,0,0,1,289.81,139Z" style="fill:#263238"></path><path d="M290.88,138.38a.12.12,0,0,1-.1,0l-1.08-1.5a.13.13,0,0,1,.21-.14l1.07,1.49a.13.13,0,0,1,0,.18Z" style="fill:#263238"></path><path d="M292,137.75a.1.1,0,0,1-.1-.05l-1.07-1.49a.14.14,0,0,1,0-.18.14.14,0,0,1,.18,0l1.07,1.5a.12.12,0,0,1,0,.17A.08.08,0,0,1,292,137.75Z" style="fill:#263238"></path><path d="M293,137.13a.12.12,0,0,1-.1,0l-1.07-1.5a.12.12,0,0,1,0-.17.13.13,0,0,1,.18,0l1.07,1.49a.12.12,0,0,1,0,.17A.09.09,0,0,1,293,137.13Z" style="fill:#263238"></path><path d="M295.13,138a.14.14,0,0,1-.1-.05L292.92,135a.13.13,0,0,1,.2-.15l2.12,2.94a.14.14,0,0,1,0,.18Z" style="fill:#263238"></path><path d="M295.13,135.91a.12.12,0,0,1-.1,0l-1.07-1.5a.12.12,0,0,1,0-.17.13.13,0,0,1,.18,0l1.07,1.49a.13.13,0,0,1,0,.18Z" style="fill:#263238"></path><path d="M296.2,135.28a.1.1,0,0,1-.1-.05L295,133.74a.14.14,0,0,1,0-.18.14.14,0,0,1,.18,0l1.07,1.5a.12.12,0,0,1,0,.17A.12.12,0,0,1,296.2,135.28Z" style="fill:#263238"></path><path d="M297.27,134.66a.12.12,0,0,1-.1-.06l-1.07-1.49a.12.12,0,0,1,0-.17.13.13,0,0,1,.18,0l1.07,1.49a.12.12,0,0,1,0,.17A.13.13,0,0,1,297.27,134.66Z" style="fill:#263238"></path><path d="M298.34,134a.14.14,0,0,1-.1-.05l-1.07-1.5a.12.12,0,0,1,.2-.14l1.08,1.49a.14.14,0,0,1,0,.18Z" style="fill:#263238"></path><path d="M300.46,134.88a.14.14,0,0,1-.11-.06l-2.11-2.94a.12.12,0,0,1,.2-.14l2.12,2.94a.13.13,0,0,1,0,.17A.11.11,0,0,1,300.46,134.88Z" style="fill:#263238"></path><path d="M300.45,132.81a.14.14,0,0,1-.1-.05l-1.07-1.49a.13.13,0,0,1,0-.18.12.12,0,0,1,.17,0l1.07,1.5a.12.12,0,0,1,0,.17A.12.12,0,0,1,300.45,132.81Z" style="fill:#263238"></path><path d="M301.52,132.19a.12.12,0,0,1-.1-.06l-1.07-1.49a.12.12,0,0,1,0-.17.12.12,0,0,1,.17,0l1.07,1.49a.12.12,0,0,1,0,.17A.13.13,0,0,1,301.52,132.19Z" style="fill:#263238"></path><path d="M302.59,131.56a.16.16,0,0,1-.1-.05l-1.07-1.5a.12.12,0,0,1,.2-.14l1.08,1.49a.14.14,0,0,1,0,.18Z" style="fill:#263238"></path><path d="M303.67,130.93a.16.16,0,0,1-.11-.05l-1.07-1.49a.13.13,0,0,1,0-.18.13.13,0,0,1,.17,0l1.08,1.49a.14.14,0,0,1,0,.18Z" style="fill:#263238"></path><path d="M305.78,131.78a.12.12,0,0,1-.1-.05l-2.12-2.95a.12.12,0,0,1,0-.17.12.12,0,0,1,.17,0l2.12,2.94a.12.12,0,0,1,0,.17A.11.11,0,0,1,305.78,131.78Z" style="fill:#263238"></path><path d="M305.77,129.72a.14.14,0,0,1-.1-.06l-1.07-1.49a.12.12,0,0,1,0-.17.12.12,0,0,1,.17,0l1.08,1.5a.13.13,0,0,1,0,.17A.11.11,0,0,1,305.77,129.72Z" style="fill:#263238"></path><path d="M306.85,129.09a.16.16,0,0,1-.11-.05l-1.07-1.5a.12.12,0,0,1,.2-.14l1.08,1.49a.14.14,0,0,1,0,.18Z" style="fill:#263238"></path><path d="M307.92,128.46a.12.12,0,0,1-.1-.05l-1.08-1.49a.13.13,0,0,1,0-.18.12.12,0,0,1,.17,0l1.08,1.49a.13.13,0,0,1,0,.18Z" style="fill:#263238"></path><path d="M309,127.84a.11.11,0,0,1-.1-.06l-1.08-1.49a.12.12,0,0,1,0-.17.12.12,0,0,1,.17,0l1.08,1.5a.12.12,0,0,1,0,.17A.11.11,0,0,1,309,127.84Z" style="fill:#263238"></path></g><path d="M246.8,187.33l-8.36,3.3a.19.19,0,0,0,0,.37l8.93,1.39Z" style="fill:#e0e0e0"></path><path d="M285.68,187.78l-38.27,4.61h0a4.62,4.62,0,0,1-.69-4.88l.08-.18,38.27-4.6Z" style="fill:#034BED"></path><path d="M289.38,187.39l-.27-5.1-4,.44a1.26,1.26,0,0,0-1.13.79,4,4,0,0,0,.14,3.61,1.26,1.26,0,0,0,1.11.7h0Z" style="fill:#f28f8f"></path><path d="M290.27,183a4,4,0,0,1,.14,3.62,1.1,1.1,0,0,1-2.09.08,4,4,0,0,1-.14-3.61A1.11,1.11,0,0,1,290.27,183Z" style="fill:#ffa8a7"></path><path d="M241.8,190.17a5.28,5.28,0,0,1,.09-.9l-3.45,1.36a.19.19,0,0,0,0,.37l3.55.55A4.86,4.86,0,0,1,241.8,190.17Z" style="fill:#263238"></path><polygon points="309.22 318.57 308.67 326.79 322.77 326.94 323.73 320.36 309.22 318.57" style="fill:#ffa8a7"></polygon><path d="M309.05,322.13a8.88,8.88,0,0,0,7.15,3.74c4.76,0,7-2,7-2s1.09,1.9,1.09,6.18v7.4s-2.55,2.3-9.16,2.3a37.83,37.83,0,0,1-7.93-.81,26,26,0,0,0-6.77-.48c-6.9.37-20.83,0-20.83-9.38,0-6.13,6.22-6.57,14.18-5.31A70.94,70.94,0,0,0,309.05,322.13Z" style="fill:#034BED"></path><path d="M307.22,338.92a26,26,0,0,0-6.77-.48c-6.65.36-19.8,0-20.77-8.38a9.09,9.09,0,0,0-.06.93c0,9.87,15.56,9.77,21.94,9.31a17.23,17.23,0,0,1,5.11.43,38,38,0,0,0,8.48.93,18.92,18.92,0,0,0,7.24-1.23,3.11,3.11,0,0,0,1.92-2.89v-.11s-2.55,2.3-9.16,2.3A37.83,37.83,0,0,1,307.22,338.92Z" style="fill:#263238"></path><path d="M279.62,329.06c0,5.05,4.08,7.49,8.91,8.61,0-13.16,5.27-13.92,5.27-13.92C285.84,322.49,279.62,322.93,279.62,329.06Z" style="fill:#fafafa"></path><path d="M303.65,323.18l2.94-2.73a2.22,2.22,0,0,1,3.64,1,6.24,6.24,0,0,1,.16,2.21Z" style="fill:#034BED"></path><path d="M293.29,330h0a.46.46,0,0,1-.44-.5c.35-5.52,3.24-6.4,3.36-6.43a.47.47,0,0,1,.59.32.48.48,0,0,1-.32.58c-.11,0-2.38.79-2.69,5.59A.47.47,0,0,1,293.29,330Z" style="fill:#fafafa"></path><path d="M297.3,329.9h0a.47.47,0,0,1-.45-.49c.21-5.53,3.08-6.47,3.2-6.5a.46.46,0,0,1,.59.31.47.47,0,0,1-.31.59c-.11,0-2.36.84-2.54,5.64A.47.47,0,0,1,297.3,329.9Z" style="fill:#fafafa"></path><path d="M301.57,330a.47.47,0,0,1-.47-.43c-.49-5.53,2.25-6.75,2.37-6.8a.47.47,0,0,1,.37.87c-.1.05-2.22,1.07-1.8,5.85a.46.46,0,0,1-.42.51Z" style="fill:#fafafa"></path><path d="M306.16,162.93s-9.26-6-11.21-9.85c-1.46-2.85-5-3.41-4.81-5.27s6.37-1,8.37,1.87c0,0-1-4.19-3.28-6.36-.8-.76-1.6-1.48-2.41-2.23-2.64-2.46,5.41-4,6.44-4.13,3.74-.48,6.69.1,9.69,2.66,5.68,4.86,9.61,18.46,9.61,18.46Z" style="fill:#ffa8a7"></path><path d="M341.2,181.84l-22.77-24.09s-9.86-1.82-12.27,5.18c0,0,17.11,25.69,23.06,32.7a4.11,4.11,0,0,0,2.88,1.63h0l55.81,10.55V188.05Z" style="fill:#ffa8a7"></path><path d="M334.24,245.21s-21.15-7.72-25,7.48,0,65.88,0,65.88,5.32,5.39,14.51,1.79c0,0,3.48-19.48,6.73-26.48s.3-18.3-.51-23.49Z" style="fill:#37474f"></path><polygon points="277.94 336.95 277.39 345.17 291.49 345.32 292.45 338.74 277.94 336.95" style="fill:#ffa8a7"></polygon><path d="M277.77,340.51a8.88,8.88,0,0,0,7.15,3.74c4.76,0,7-2,7-2s1.09,1.9,1.09,6.17v7.41s-2.55,2.3-9.16,2.3a38.71,38.71,0,0,1-7.94-.81,26,26,0,0,0-6.76-.48c-6.9.37-20.83,0-20.83-9.38,0-6.14,6.22-6.58,14.17-5.31A71.74,71.74,0,0,0,277.77,340.51Z" style="fill:#034BED"></path><path d="M275.93,357.3a26,26,0,0,0-6.76-.48c-6.65.36-19.8,0-20.77-8.38a8.9,8.9,0,0,0-.06.93c0,9.87,15.56,9.77,21.94,9.31a17.23,17.23,0,0,1,5.11.43,38,38,0,0,0,8.48.93,18.92,18.92,0,0,0,7.24-1.23,3.12,3.12,0,0,0,1.92-2.89v-.11s-2.55,2.3-9.16,2.3A38.71,38.71,0,0,1,275.93,357.3Z" style="fill:#263238"></path><path d="M248.34,347.44c0,5.05,4.08,7.49,8.91,8.6,0-13.15,5.26-13.91,5.26-13.91C254.56,340.86,248.34,341.3,248.34,347.44Z" style="fill:#fafafa"></path><path d="M272.37,341.55l2.94-2.72a2.22,2.22,0,0,1,3.64,1,6.22,6.22,0,0,1,.16,2.21Z" style="fill:#034BED"></path><path d="M262,348.39h0a.46.46,0,0,1-.44-.5c.35-5.53,3.24-6.4,3.36-6.44a.48.48,0,0,1,.59.33.47.47,0,0,1-.33.58c-.11,0-2.37.8-2.68,5.59A.46.46,0,0,1,262,348.39Z" style="fill:#fafafa"></path><path d="M266,348.28h0a.47.47,0,0,1-.45-.49c.21-5.54,3.08-6.47,3.2-6.51a.47.47,0,0,1,.59.32.45.45,0,0,1-.31.58c-.11,0-2.36.85-2.54,5.65A.47.47,0,0,1,266,348.28Z" style="fill:#fafafa"></path><path d="M270.29,348.35a.48.48,0,0,1-.47-.43c-.49-5.53,2.25-6.75,2.37-6.8a.47.47,0,0,1,.37.87c-.1,0-2.22,1.07-1.8,5.84a.48.48,0,0,1-.43.52Z" style="fill:#fafafa"></path><path d="M308.3,256.36s-21.45-6-25.32,9.19-5,71.4-5,71.4,5.32,5.39,14.51,1.79c0,0,3.48-19.48,6.73-26.48s5.35-23.81,4.53-29Z" style="fill:#37474f"></path><path d="M337.94,317.33l14,86.27a2.3,2.3,0,0,0,2.27,1.93h0a2.3,2.3,0,0,0,2.29-2.56l-10.39-88.61Z" style="fill:#263238"></path><path d="M316.68,299.62l-15.45,73.27a2.31,2.31,0,0,1-2.36,1.83h0a2.31,2.31,0,0,1-2.17-2.67l11.95-75.76Z" style="fill:#263238"></path><path d="M363.9,272.94,348.45,346.2a2.3,2.3,0,0,1-2.36,1.83h0a2.31,2.31,0,0,1-2.17-2.66l11.95-75.77Z" style="fill:#263238"></path><path d="M387.53,303.09,399.64,377a2.3,2.3,0,0,0,2.27,1.93h0a2.31,2.31,0,0,0,2.3-2.56l-8.5-76.23Z" style="fill:#263238"></path><path d="M300,288.06l1,2.82c1.58,3.24,4.45,6.2,8.49,8.95,15.36,10.44,29.92,21.55,36.62,14.53s17.72-38.65,20.34-47.84c.47-1.67,1-3.27,1.58-4.82l-14.1-4.7a23.74,23.74,0,0,0-20.48,2.64l-27.94,18.21a12.16,12.16,0,0,0-5.53,10.2h0Z" style="fill:#034BED"></path><path d="M334.24,245.21l65.35,21.66s2.57,23-26.51,35L325.53,269.6S324.79,246.51,334.24,245.21Z" style="fill:#37474f"></path><polygon points="308.3 256.36 346.56 267.16 349.7 263.84 308.82 254.52 308.3 256.36" style="fill:#263238"></polygon><path d="M387.53,274.11s2.54,32.44-35,32.44c-22.19,0-54-27.42-54-27.42l9.76-22.77,38.26,10.8Z" style="fill:#37474f"></path><path d="M396.72,247a81.38,81.38,0,0,1-.38-20.27c.72-6.76,1.52-15,1.52-18.3h0c.15-9.38-4.18-20.66-9.56-23.62l-7.69,1.41L363.47,191l-8,1.66s-15.7,15.32-15.7,33.29a10.88,10.88,0,0,0,.26,2.3l0,0,.05.07c1.47,6.63,8.41,11.24,8.41,11.24a87.45,87.45,0,0,1,1,13.78,31.81,31.81,0,0,1-2.85,13.78s6.4,14.51,25.75,14.51c13.33,0,24.05-9.49,27.28-14.8Z" style="fill:#034BED"></path><path d="M396.72,247a81.38,81.38,0,0,1-.38-20.27c.72-6.76,1.52-15,1.52-18.3h0c.15-9.38-4.18-20.66-9.56-23.62l-7.69,1.41L363.47,191l-8,1.66s-15.7,15.32-15.7,33.29a10.88,10.88,0,0,0,.26,2.3l0,0,.05.07c1.47,6.63,8.41,11.24,8.41,11.24a87.45,87.45,0,0,1,1,13.78,31.81,31.81,0,0,1-2.85,13.78s6.4,14.51,25.75,14.51c13.33,0,24.05-9.49,27.28-14.8Z" style="opacity:0.5"></path><path d="M376.47,191.18c-5.88,1.88-13-.19-13-.19V171.11h17v16.06A5.9,5.9,0,0,1,376.47,191.18Z" style="fill:#ffa8a7"></path><polygon points="349.81 158.25 349.81 167.67 344.29 165.98 349.81 158.25" style="fill:#f28f8f"></polygon><path d="M378.89,133.71c-3.68-1-16.52-3.57-27.94,6-2.53,2.11-5.42,7.73-6.35,14.75a19.21,19.21,0,0,0,4.67,2.52Z" style="fill:#263238"></path><path d="M370.85,137.58c-5.61-.61-17.89,1.2-20.88,15.74s-2.92,26.07,4.54,28,25.66-1.62,30.1-20.37S376.32,138.19,370.85,137.58Z" style="fill:#ffa8a7"></path><path d="M355.33,141.12s-1.94,7.62,1,13.59a12.39,12.39,0,0,1,.65,9.9,14.76,14.76,0,0,1-2.58,4.46s4-.7,5.72-5.87a40,40,0,0,1,2.93,8.74c.51,3.57,2.65,6.58,9.3,8.42,3.24.9,7.37.48,9.5-.84,0,0,6.52-4.44,9.14-8.07s8.27-16.51,2.4-26.6S372.65,126.33,355.33,141.12Z" style="fill:#263238"></path><path d="M362.6,169.76s-.27,7.5-2.23,11.78-5.85,14.41,5,18c0,0-2.65-3.77-.67-6.24,0,0,10.45,13.44,25.35.89,0,0-4.72-1.24-5.66-5.09,0,0,11.62,10.57,18.92-4.23,0,0-12.55-9-8.8-20.79Z" style="fill:#263238"></path><path d="M360.58,163.2s.74-6.18,5-6.25c4.72-.06,5.3,4.49,5.21,6.11-.22,4.24-2.8,8.38-10.25,6Z" style="fill:#ffa8a7"></path><path d="M355.33,141.12s-4.95,3.7-4.12,16.42c0,0,2.91,1.43,5.13,1,0,0-.5-6.88,2.22-12.21Z" style="fill:#263238"></path><path d="M277.2,198.85s-1.19-2.93-1.71-4.37a25.94,25.94,0,0,0-2.55-5.17l-6.48.79s-4.48-2.45-6.75-5.21-6.57-6.52-7.88-3.69-1.43,11.56.38,14.16,5.58,7.62,15.07,12.38Z" style="fill:#ffa8a7"></path><path d="M329.24,202.49l-24.72,10.32-27.32-14s-9.92,1.48-9.92,8.89c0,0,24.54,18.71,32.45,23.41s49.34-16.22,49.34-16.22Z" style="fill:#ffa8a7"></path><path d="M324.82,203.39a23,23,0,0,0,6.48,20.35s31.36-8.81,28.73-23.88c-1.09-6.24-4.56-7.21-4.56-7.21s-2.93-1.15-14.31,3.71S324.82,203.39,324.82,203.39Z" style="fill:#034BED"></path><path d="M324.82,203.39a23,23,0,0,0,6.48,20.35s31.36-8.81,28.73-23.88c-1.09-6.24-4.56-7.21-4.56-7.21s-2.93-1.15-14.31,3.71S324.82,203.39,324.82,203.39Z" style="opacity:0.7000000000000001"></path><path d="M299.6,284.83V292c0,1.2,0,5.63,7.92,12s25.57,17.46,33.52,18.6c18.46,2.65,26.13-64.89,46.55-81.29,17.44-14,27.25-13.36,27.25-13.36a16.69,16.69,0,0,0-3.47-2.31c-4.12-2.11-35,6.21-44.91,40.89-2.62,9.19-13.64,40.83-20.34,47.84s-21.26-4.09-36.62-14.53C303.06,295.45,299.6,290.53,299.6,284.83Z" style="fill:#034BED"></path><path d="M299.6,284.83V292c0,1.2,0,5.63,7.92,12s25.57,17.46,33.52,18.6c18.46,2.65,26.13-64.89,46.55-81.29,17.44-14,27.25-13.36,27.25-13.36a16.69,16.69,0,0,0-3.47-2.31c-4.12-2.11-35,6.21-44.91,40.89-2.62,9.19-13.64,40.83-20.34,47.84s-21.26-4.09-36.62-14.53C303.06,295.45,299.6,290.53,299.6,284.83Z" style="opacity:0.30000000000000004"></path><path d="M414.84,227.94s-9.81-.64-27.25,13.36c-20.42,16.4-28.09,83.94-46.55,81.29,10.85,4.11,31.27-7.77,50.3-17.77s19.89-13.56,24-30.54C424.2,237.92,418.1,230.16,414.84,227.94Z" style="fill:#034BED"></path></g></svg>